<?xml version="1.0" encoding="utf-8"?>
<svg xmlns="http://www.w3.org/2000/svg" viewBox="155.3549 60.2363 125.7419 110.5283" width="125.742px" height="110.528px">
  <defs>
    <clipPath id="clip0_8844_3301">
      <rect width="20" height="23.0769" fill="white" transform="translate(0 0.461548)"/>
    </clipPath>
  </defs>
  <g clip-path="url(#clip0_8844_3301)" transform="matrix(5.041531085968018, 0, 0, 4.790167808532715, 177.12216186523438, 58.02089309692383)" style="">
    <path d="M 16.694 16.522 C 16.597 16.466 16.479 16.466 16.383 16.522 C 15.498 17.03 11.137 19.547 11.137 19.547 C 10.628 19.833 10.008 19.833 9.511 19.547 L 4.198 16.482 C 3.688 16.196 3.377 15.65 3.377 15.067 L 3.377 8.921 C 3.377 8.338 3.688 7.804 4.198 7.506 L 9.511 4.44 C 10.021 4.155 10.641 4.155 11.137 4.44 C 11.137 4.44 15.46 6.937 16.353 7.451 C 16.452 7.508 16.574 7.509 16.672 7.451 C 17.197 7.15 18.865 6.188 19.54 5.798 C 19.67 5.723 19.67 5.538 19.541 5.463 C 18.078 4.604 11.535 0.788 11.535 0.788 C 10.791 0.354 9.858 0.354 9.113 0.788 L 1.218 5.345 C 0.474 5.779 0 6.574 0 7.443 L 0 16.557 C 0 17.426 0.459 18.222 1.218 18.656 L 3.434 19.929 C 3.434 19.929 3.443 19.937 3.443 19.943 C 3.637 20.059 5.34 21.076 6.871 21.928 C 6.877 21.924 6.884 21.923 6.891 21.926 L 9.116 23.211 C 9.86 23.645 10.793 23.645 11.538 23.211 C 11.538 23.211 18.186 19.335 19.58 18.533 C 19.662 18.486 19.697 18.428 19.699 18.368 C 19.702 18.297 19.66 18.232 19.599 18.197 C 19.277 18.011 17.273 16.853 16.695 16.521 L 16.694 16.522 Z" fill="#644CEA"/>
    <g opacity="0.6"/>
  </g>
  <path style="fill: rgb(100, 76, 234); stroke: rgb(100, 76, 234);" d="M 261.316 92.753 L 268.812 81.051 C 267.43 80.656 271.911 73.902 272.733 74.137 C 274.19 73.413 281.454 92.836 280.299 94.686 C 276.877 103.017 256.711 100.847 256.717 100.042 C 256.222 99.877 259.981 92.308 261.316 92.753 Z" transform="matrix(1, 0, 0, 1, 7.105427357601002e-15, 0)"/>
  <path style="fill: rgb(100, 76, 234); stroke: rgb(100, 76, 234); stroke-width: 1; transform-origin: 268.61px 139.755px;" d="M 261.165 144.935 L 268.781 133.472 C 268.62 133.095 273.897 125.476 274.618 127.157 C 277.216 125.698 282.868 148.413 278.944 150.364 C 274.213 154.597 256.957 151.509 256.993 151.477 C 256.406 151.242 260.178 144.54 261.165 144.935 Z" transform="matrix(0, -1, 1, 0, -0.3530426, -1.30467224)"/>
  <path style="stroke: rgb(100, 76, 234); fill: rgb(100, 76, 234);" d="M 157.155 106.875 C 157.155 105.411 189.825 105.064 189.825 105.209 L 193.19 114.14 L 190.343 124.932 C 190.892 127.419 157.568 128.55 156.955 125.304 C 155.036 125.715 154.545 108.234 157.155 106.875 Z" transform="matrix(1, 0, 0, 1, 7.105427357601002e-15, 0)"/>
  <rect x="206.16" y="97.804" width="19.163" height="8.466" rx="4.233" ry="4.233" style="stroke-width: 1; fill: rgb(255, 183, 77);" transform="matrix(1, 0, 0, 1, 7.105427357601002e-15, 0)"/>
  <rect x="233.632" y="109.532" width="21.254" height="8.466" rx="4.233" ry="4.233" style="stroke-width: 1; paint-order: fill; fill: rgb(255, 183, 77);" transform="matrix(1, 0, 0, 1, 7.105427357601002e-15, 0)"/>
  <rect x="214.971" y="128.395" width="20.418" height="8.466" rx="4.233" ry="4.233" style="stroke-width: 1; fill: rgb(255, 183, 77);" transform="matrix(1, 0, 0, 1, 7.105427357601002e-15, 0)"/>
</svg>